<?xml version="1.0" standalone="no"?>
<!DOCTYPE svg PUBLIC "-//W3C//DTD SVG 20010904//EN" "http://www.w3.org/TR/2001/REC-SVG-20010904/DTD/svg10.dtd">
<svg version="1.0" xmlns="http://www.w3.org/2000/svg"
  width="900.000000pt" height="900.000000pt" viewBox="0 0 900.000000 900.000000"
  preserveAspectRatio="xMidYMid meet">

  <g transform="translate(0.000000,900.000000) scale(0.100000,-0.100000)"
    fill="#ff8674" stroke="none">
    <path
      d="M4215 8985 c-830 -86 -1556 -428 -2131 -1000 -570 -568 -899 -1238
-1010 -2060 -25 -186 -25 -648 0 -830 52 -376 142 -705 274 -995 71 -156 88
-189 159 -314 246 -428 555 -778 951 -1074 175 -130 302 -208 517 -317 368
-186 744 -300 1165 -352 214 -26 628 -23 844 6 656 88 1234 335 1751 747 126
101 403 373 491 484 112 140 160 205 236 321 290 439 470 929 545 1479 14 108
18 198 17 445 0 283 -3 325 -27 485 -112 740 -432 1391 -940 1916 -571 591
-1270 940 -2102 1050 -159 21 -579 26 -740 9z" />
    <path
      d="M4010 989 c-888 -43 -1603 -196 -1797 -384 -48 -46 -53 -55 -53 -94
0 -55 20 -91 72 -134 434 -352 2447 -493 3800 -266 587 98 927 255 892 411 -9
44 -77 113 -148 153 -293 163 -930 277 -1761 315 -240 11 -759 11 -1005 -1z" />
  </g>
</svg>
